<svg width="24" height="27" viewBox="0 0 24 27" fill="none" xmlns="http://www.w3.org/2000/svg">
<path d="M22.001 2.33347H19.001V1.33347C19.001 1.06825 18.8956 0.813895 18.7081 0.626359C18.5205 0.438822 18.2662 0.333466 18.001 0.333466C17.7358 0.333466 17.4814 0.438822 17.2939 0.626359C17.1063 0.813895 17.001 1.06825 17.001 1.33347V2.33347H7.00098V1.33347C7.00098 1.06825 6.89562 0.813895 6.70808 0.626359C6.52055 0.438822 6.26619 0.333466 6.00098 0.333466C5.73576 0.333466 5.48141 0.438822 5.29387 0.626359C5.10633 0.813895 5.00098 1.06825 5.00098 1.33347V2.33347H2.00098C1.47054 2.33347 0.961836 2.54418 0.586763 2.91925C0.21169 3.29432 0.000976563 3.80303 0.000976562 4.33347V24.3335C0.000976563 24.8639 0.21169 25.3726 0.586763 25.7477C0.961836 26.1228 1.47054 26.3335 2.00098 26.3335H22.001C22.5314 26.3335 23.0401 26.1228 23.4152 25.7477C23.7903 25.3726 24.001 24.8639 24.001 24.3335V4.33347C24.001 3.80303 23.7903 3.29432 23.4152 2.91925C23.0401 2.54418 22.5314 2.33347 22.001 2.33347ZM10.001 21.3335C10.001 21.5987 9.89562 21.853 9.70808 22.0406C9.52055 22.2281 9.26619 22.3335 9.00098 22.3335C8.73576 22.3335 8.48141 22.2281 8.29387 22.0406C8.10633 21.853 8.00098 21.5987 8.00098 21.3335V14.951L7.44848 15.2285C7.21111 15.3472 6.93631 15.3667 6.68455 15.2828C6.43278 15.1988 6.22466 15.0183 6.10598 14.781C5.98729 14.5436 5.96776 14.2688 6.05169 14.017C6.13561 13.7653 6.31611 13.5571 6.55348 13.4385L8.55348 12.4385C8.70599 12.3621 8.87549 12.3261 9.04586 12.3338C9.21624 12.3414 9.38182 12.3925 9.52688 12.4822C9.67193 12.5719 9.79164 12.6972 9.87462 12.8462C9.9576 12.9952 10.0011 13.1629 10.001 13.3335V21.3335ZM17.001 20.3335C17.2662 20.3335 17.5205 20.4388 17.7081 20.6264C17.8956 20.8139 18.001 21.0682 18.001 21.3335C18.001 21.5987 17.8956 21.853 17.7081 22.0406C17.5205 22.2281 17.2662 22.3335 17.001 22.3335H13.001C12.8153 22.3335 12.6332 22.2818 12.4752 22.1841C12.3173 22.0865 12.1896 21.9468 12.1066 21.7807C12.0235 21.6146 11.9883 21.4286 12.005 21.2437C12.0217 21.0587 12.0896 20.882 12.201 20.7335L15.7985 15.9372C15.8803 15.8283 15.939 15.7038 15.971 15.5713C16.003 15.4389 16.0075 15.3013 15.9844 15.167C15.9613 15.0328 15.911 14.9046 15.8366 14.7905C15.7622 14.6764 15.6653 14.5786 15.5517 14.5033C15.4382 14.428 15.3105 14.3767 15.1764 14.3525C15.0423 14.3283 14.9047 14.3318 14.772 14.3627C14.6393 14.3936 14.5143 14.4513 14.4048 14.5323C14.2952 14.6132 14.2033 14.7157 14.1347 14.8335C14.071 14.9508 13.9844 15.0542 13.8801 15.1376C13.7758 15.2209 13.6558 15.2825 13.5273 15.3188C13.3987 15.355 13.2642 15.3651 13.1317 15.3485C12.9992 15.3319 12.8714 15.289 12.7558 15.2222C12.6401 15.1554 12.539 15.0661 12.4585 14.9596C12.3779 14.8531 12.3195 14.7316 12.2866 14.6022C12.2538 14.4727 12.2472 14.338 12.2673 14.206C12.2874 14.074 12.3337 13.9473 12.4035 13.8335C12.7338 13.2618 13.2435 12.8151 13.8535 12.5626C14.4635 12.3101 15.1398 12.2658 15.7775 12.4367C16.4152 12.6076 16.9788 12.9841 17.3808 13.5078C17.7828 14.0315 18.0008 14.6732 18.001 15.3335C18.0031 15.9856 17.7905 16.6204 17.396 17.1397L15.001 20.3335H17.001ZM2.00098 8.33347V4.33347H5.00098V5.33347C5.00098 5.59868 5.10633 5.85304 5.29387 6.04057C5.48141 6.22811 5.73576 6.33347 6.00098 6.33347C6.26619 6.33347 6.52055 6.22811 6.70808 6.04057C6.89562 5.85304 7.00098 5.59868 7.00098 5.33347V4.33347H17.001V5.33347C17.001 5.59868 17.1063 5.85304 17.2939 6.04057C17.4814 6.22811 17.7358 6.33347 18.001 6.33347C18.2662 6.33347 18.5205 6.22811 18.7081 6.04057C18.8956 5.85304 19.001 5.59868 19.001 5.33347V4.33347H22.001V8.33347H2.00098Z" />
</svg>
