<svg width="32" height="32" viewBox="0 0 32 32" fill="none" xmlns="http://www.w3.org/2000/svg">
<path d="M15.9995 10.6667C17.414 10.6667 18.7706 11.2286 19.7708 12.2288C20.771 13.229 21.3329 14.5855 21.3329 16C21.3329 17.4145 20.771 18.7711 19.7708 19.7713C18.7706 20.7715 17.414 21.3334 15.9995 21.3334C14.585 21.3334 13.2285 20.7715 12.2283 19.7713C11.2281 18.7711 10.6662 17.4145 10.6662 16C10.6662 14.5855 11.2281 13.229 12.2283 12.2288C13.2285 11.2286 14.585 10.6667 15.9995 10.6667ZM15.9995 13.3334C15.2923 13.3334 14.614 13.6143 14.1139 14.1144C13.6138 14.6145 13.3329 15.2928 13.3329 16C13.3329 16.7073 13.6138 17.3855 14.1139 17.8856C14.614 18.3857 15.2923 18.6667 15.9995 18.6667C16.7068 18.6667 17.3851 18.3857 17.8851 17.8856C18.3852 17.3855 18.6662 16.7073 18.6662 16C18.6662 15.2928 18.3852 14.6145 17.8851 14.1144C17.3851 13.6143 16.7068 13.3334 15.9995 13.3334ZM13.3329 29.3334C12.9995 29.3334 12.7195 29.0934 12.6662 28.7734L12.1729 25.24C11.3329 24.9067 10.6129 24.4534 9.91953 23.92L6.59953 25.2667C6.3062 25.3734 5.9462 25.2667 5.7862 24.9734L3.11953 20.36C3.03793 20.2226 3.00916 20.0602 3.0386 19.9032C3.06805 19.7461 3.1537 19.6052 3.27953 19.5067L6.09286 17.2934L5.99953 16L6.09286 14.6667L3.27953 12.4934C3.1537 12.3949 3.06805 12.2539 3.0386 12.0969C3.00916 11.9398 3.03793 11.7774 3.11953 11.64L5.7862 7.02669C5.9462 6.73335 6.3062 6.61335 6.59953 6.73335L9.91953 8.06669C10.6129 7.54669 11.3329 7.09335 12.1729 6.76002L12.6662 3.22669C12.7195 2.90669 12.9995 2.66669 13.3329 2.66669H18.6662C18.9995 2.66669 19.2795 2.90669 19.3329 3.22669L19.8262 6.76002C20.6662 7.09335 21.3862 7.54669 22.0795 8.06669L25.3995 6.73335C25.6929 6.61335 26.0529 6.73335 26.2129 7.02669L28.8795 11.64C29.0529 11.9334 28.9729 12.2934 28.7195 12.4934L25.9062 14.6667L25.9995 16L25.9062 17.3334L28.7195 19.5067C28.9729 19.7067 29.0529 20.0667 28.8795 20.36L26.2129 24.9734C26.0529 25.2667 25.6929 25.3867 25.3995 25.2667L22.0795 23.9334C21.3862 24.4534 20.6662 24.9067 19.8262 25.24L19.3329 28.7734C19.2795 29.0934 18.9995 29.3334 18.6662 29.3334H13.3329ZM14.9995 5.33335L14.5062 8.81335C12.9062 9.14669 11.4929 10 10.4662 11.1867L7.25286 9.80002L6.25286 11.5334L9.0662 13.6C8.53286 15.1556 8.53286 16.8445 9.0662 18.4L6.23953 20.48L7.23953 22.2134L10.4795 20.8267C11.5062 22 12.9062 22.8534 14.4929 23.1734L14.9862 26.6667H17.0129L17.5062 23.1867C19.0929 22.8534 20.4929 22 21.5195 20.8267L24.7595 22.2134L25.7595 20.48L22.9329 18.4134C23.4662 16.8534 23.4662 15.16 22.9329 13.6L25.7462 11.5334L24.7462 9.80002L21.5329 11.1867C20.4852 9.97378 19.064 9.14359 17.4929 8.82669L16.9995 5.33335H14.9995Z" fill="white"/>
</svg>
