<svg width="22" height="22" viewBox="0 0 22 22" fill="none" xmlns="http://www.w3.org/2000/svg">
<path d="M18.8707 10.3068V17.8925C18.8707 18.2407 18.7324 18.5746 18.4862 18.8208C18.24 19.067 17.9061 19.2053 17.5579 19.2053H14.2758C13.9276 19.2053 13.5937 19.067 13.3475 18.8208C13.1013 18.5746 12.963 18.2407 12.963 17.8925V14.6104C12.963 14.4363 12.8938 14.2694 12.7707 14.1463C12.6476 14.0232 12.4807 13.954 12.3066 13.954H9.68095C9.50686 13.954 9.3399 14.0232 9.2168 14.1463C9.0937 14.2694 9.02454 14.4363 9.02454 14.6104V17.8925C9.02454 18.2407 8.88623 18.5746 8.64003 18.8208C8.39383 19.067 8.05991 19.2053 7.71172 19.2053H4.42967C4.08149 19.2053 3.74757 19.067 3.50137 18.8208C3.25517 18.5746 3.11685 18.2407 3.11685 17.8925V10.3068C3.11682 10.1252 3.15451 9.94543 3.22753 9.77905C3.30055 9.61268 3.40731 9.46327 3.54106 9.34028L10.1052 3.14705L10.1142 3.13803C10.3559 2.91824 10.6708 2.79645 10.9975 2.79645C11.3241 2.79645 11.6391 2.91824 11.8807 3.13803C11.8835 3.14124 11.8866 3.14425 11.8898 3.14705L18.4539 9.34028C18.5863 9.46392 18.6917 9.61362 18.7634 9.77996C18.8351 9.94631 18.8717 10.1257 18.8707 10.3068Z" />
</svg>
