<svg width="30" height="27" viewBox="0 0 30 27" fill="none" xmlns="http://www.w3.org/2000/svg">
<g clip-path="url(#clip0_1_194)">
<path d="M3.2384 8.52384H5.10692V18.9559H28.0701V5.48631H12.971V3.59782C13.2683 3.58375 13.5231 3.5603 13.7795 3.5603C18.5755 3.5603 23.371 3.5603 28.1661 3.5603C29.5816 3.5603 29.9905 3.97146 29.9921 5.3675C29.9921 10.4222 29.9921 15.477 29.9921 20.5317C29.9921 21.9058 29.5376 22.3561 28.1582 22.3561H5.12579C3.70081 22.3561 3.2384 21.9027 3.2384 20.4895V8.52384Z" fill="#215394"/>
<path d="M11.189 9.76789C10.7675 9.12537 10.4309 8.68451 10.1761 8.20458C9.89932 7.6793 9.53443 7.4917 8.91788 7.50108C6.35261 7.53548 3.78576 7.51828 1.21892 7.51359C0.240625 7.51359 0.00470199 7.29003 -1.64742e-05 6.32547C-0.0115505 4.60686 -0.0115505 2.88721 -1.64742e-05 1.16652C-1.64742e-05 0.25354 0.262648 0.00497153 1.17331 0.00340822C4.39445 -0.00284506 7.61559 -0.00284506 10.8367 0.00340822C11.7332 0.00340822 12.0509 0.328578 12.0541 1.23687C12.0614 2.95339 12.0614 4.67304 12.0541 6.39582C12.0541 6.6225 12.0541 6.97893 11.922 7.05397C10.9783 7.59801 11.2928 8.46096 11.2928 9.25356C11.2677 9.42676 11.2331 9.59847 11.189 9.76789ZM5.98929 1.37131C4.73103 1.37131 3.47278 1.36037 2.21452 1.37131C1.83232 1.37131 1.2551 1.20404 1.28499 1.84031C1.28499 2.00602 1.86692 2.27335 2.18306 2.27804C4.72159 2.31399 7.2617 2.30149 9.80023 2.29367C10.1698 2.29367 10.703 2.39841 10.648 1.81061C10.6323 1.63708 10.1211 1.39476 9.83012 1.38382C8.55613 1.34474 7.27114 1.37131 5.98929 1.37131ZM6.00659 3.24729C4.93235 3.24729 3.85812 3.21603 2.78703 3.26918C2.5338 3.28169 2.29473 3.58184 2.04937 3.73818C2.28844 3.88513 2.52122 4.15402 2.76973 4.15871C4.91663 4.19154 7.0651 4.19466 9.2183 4.15871C9.46838 4.15871 9.71373 3.84605 9.96066 3.67408C9.71845 3.53338 9.48096 3.28169 9.23402 3.27074C8.15507 3.2129 7.08083 3.23948 6.00659 3.23948V3.24729ZM5.94053 6.03156C6.64358 6.03156 7.35608 6.06908 8.04969 6.00811C8.24787 5.99092 8.42245 5.69545 8.60804 5.51723C8.41773 5.38435 8.23056 5.13891 8.03711 5.13422C6.68343 5.10191 5.3287 5.10191 3.97293 5.13422C3.78105 5.13422 3.59546 5.39686 3.40672 5.53912C3.60018 5.69545 3.78105 5.98935 3.98709 6.00811C4.63352 6.06283 5.28309 6.02375 5.94053 6.02375V6.03156Z" fill="#215394"/>
<path d="M10.4907 17.9597C10.4907 17.1374 10.4356 16.3573 10.5048 15.5866C10.557 15.0085 10.8207 14.4696 11.246 14.072C11.6712 13.6743 12.2285 13.4456 12.8121 13.4292C15.3811 13.3948 17.95 13.3948 20.519 13.4292C21.1149 13.4423 21.6845 13.6755 22.1169 14.0832C22.5492 14.491 22.8133 15.0442 22.8578 15.635C22.9238 16.3807 22.8703 17.1358 22.8703 17.944H20.9987C20.9987 17.475 21.0459 17.0389 20.9782 16.6137C20.9484 16.4198 20.692 16.2619 20.5378 16.0868C20.3806 16.2572 20.1179 16.4104 20.088 16.6011C20.0188 17.0264 20.066 17.4703 20.066 17.9534H13.3029C13.3029 17.5376 13.3532 17.0983 13.2808 16.6809C13.2431 16.4636 12.9883 16.2838 12.831 16.0868C12.6737 16.2838 12.4252 16.4636 12.3859 16.6809C12.3136 17.0795 12.3655 17.5001 12.3655 17.955L10.4907 17.9597Z" fill="#215394"/>
<path d="M23.5703 26.8757H9.41488C9.30321 25.7016 9.71528 25.2201 10.8147 25.1935H11.0506C12.3859 25.1935 12.4095 25.1935 12.8436 23.957C13.0009 23.4989 13.2447 23.3801 13.6977 23.3863C15.5552 23.4067 17.4127 23.377 19.2702 23.416C19.4196 23.4306 19.5636 23.4791 19.6912 23.5577C19.8189 23.6363 19.9266 23.7429 20.0063 23.8694C20.5976 25.1701 20.5756 25.1795 22.0714 25.1935C23.2604 25.2029 23.6851 25.661 23.5703 26.8757Z" fill="#215394"/>
<path d="M16.6593 6.54447C17.0259 6.54301 17.3891 6.61392 17.7279 6.75311C18.0667 6.8923 18.3743 7.09698 18.6328 7.35527C18.8914 7.61357 19.0957 7.92034 19.234 8.25777C19.3723 8.5952 19.4419 8.95657 19.4385 9.32092C19.4391 9.67916 19.3684 10.034 19.2304 10.3649C19.0924 10.6959 18.8898 10.9964 18.6344 11.2491C18.3789 11.5018 18.0757 11.7018 17.7421 11.8375C17.4085 11.9731 17.0512 12.0418 16.6908 12.0395C15.107 12.0395 13.8597 10.842 13.8597 9.30529C13.855 8.93958 13.9243 8.57666 14.0637 8.23815C14.203 7.89963 14.4094 7.59243 14.6706 7.33484C14.9318 7.07725 15.2425 6.87452 15.5841 6.73874C15.9258 6.60296 16.2915 6.53689 16.6593 6.54447Z" fill="#215394"/>
</g>
<defs>
<clipPath id="clip0_1_194">
<rect width="30" height="26.875" fill="white" transform="translate(0 0.000488281)"/>
</clipPath>
</defs>
</svg>
