<svg width="22" height="22" viewBox="0 0 22 22" fill="none" xmlns="http://www.w3.org/2000/svg">
<path d="M18.6728 11.433C18.6728 11.6071 18.6036 11.7741 18.4805 11.8972C18.3574 12.0203 18.1905 12.0894 18.0164 12.0894H11.4523V18.6535C11.4523 18.8276 11.3831 18.9946 11.26 19.1177C11.1369 19.2408 10.97 19.3099 10.7959 19.3099C10.6218 19.3099 10.4548 19.2408 10.3317 19.1177C10.2086 18.9946 10.1395 18.8276 10.1395 18.6535V12.0894H3.57536C3.40126 12.0894 3.2343 12.0203 3.1112 11.8972C2.9881 11.7741 2.91895 11.6071 2.91895 11.433C2.91895 11.2589 2.9881 11.092 3.1112 10.9689C3.2343 10.8458 3.40126 10.7766 3.57536 10.7766H10.1395V4.2125C10.1395 4.03841 10.2086 3.87145 10.3317 3.74835C10.4548 3.62525 10.6218 3.55609 10.7959 3.55609C10.97 3.55609 11.1369 3.62525 11.26 3.74835C11.3831 3.87145 11.4523 4.03841 11.4523 4.2125V10.7766H18.0164C18.1905 10.7766 18.3574 10.8458 18.4805 10.9689C18.6036 11.092 18.6728 11.2589 18.6728 11.433Z" />
</svg>
