<svg width="30" height="19" viewBox="0 0 30 19" fill="none" xmlns="http://www.w3.org/2000/svg">
<path d="M0 14.0766C0.202203 13.1547 0.347065 12.2161 0.614154 11.3137C1.69458 7.67104 3.87505 4.85227 7.14047 2.74725L10.2218 8.06941C7.59769 9.84548 6.13851 12.3081 5.94084 15.5781H0V14.0766Z" fill="#083F88"/>
<path d="M23.0173 3.0816C26.5363 5.13983 29.4525 9.87728 29.4994 14.6023H24.5679C24.2612 11.6692 22.9163 9.27924 20.4649 7.50303L23.0173 3.0816Z" stroke="#083F88"/>
<path d="M18.9617 7.61617C16.3135 6.43313 13.7226 6.43162 11.0683 7.61617L8.04129 2.37701C11.3988 0.113543 17.7515 -0.207868 22.0084 2.31212L18.9617 7.61617Z" fill="#083F88"/>
<path d="M15.465 9.60591C16.0088 11.854 16.5751 14.0993 17.0825 16.356C17.2413 17.0558 16.6235 17.7184 15.882 17.7956C15.112 17.8738 14.3389 17.3054 14.4194 16.5504C14.6674 14.2316 15.0023 11.9193 15.3079 9.60932L15.465 9.60591Z" fill="#083F88"/>
</svg>
