<svg width="30" height="17" viewBox="0 0 30 17" fill="none" xmlns="http://www.w3.org/2000/svg">
<path d="M0 13.9782C0.202201 13.0563 0.347063 12.1177 0.61415 11.2153C1.69457 7.57268 3.87502 4.75393 7.14043 2.64893L10.2217 7.97105C7.59764 9.7471 6.13847 12.2097 5.9408 15.4797H0V13.9782Z" fill="#083F88"/>
<path d="M29.9939 15.423H24.1089C23.9007 12.2753 22.5019 9.77496 19.8023 7.97174L22.8293 2.72809C26.8281 4.79688 30.1629 10.1658 29.9939 15.423Z" fill="#083F88"/>
<path d="M18.9619 7.51779C16.3136 6.33476 13.7227 6.33325 11.0685 7.51779L8.04147 2.27867C11.3989 0.0152178 17.7517 -0.306191 22.0085 2.21378L18.9619 7.51779Z" fill="#083F88"/>
<path d="M20.8238 11.3783C19.1489 12.9733 17.4875 14.5864 15.7869 16.1542C15.2603 16.6416 14.3775 16.4379 13.9399 15.8343C13.4872 15.2066 13.5929 14.2529 14.287 13.9451C16.4192 13.0005 18.5891 12.1343 20.7424 11.244L20.8238 11.3783Z" fill="#083F88"/>
</svg>
