<svg width="30" height="25" viewBox="0 0 30 25" fill="none" xmlns="http://www.w3.org/2000/svg">
<path d="M0 19.5153C0.202202 18.5933 0.347064 17.6547 0.614152 16.7523C1.69458 13.1097 3.87504 10.2909 7.14045 8.18591L10.2218 13.5081C7.59767 15.2841 6.13849 17.7468 5.94082 21.0167H0V19.5153Z" fill="#083F88"/>
<path d="M23.0173 8.93933C26.5364 10.9975 29.4526 15.735 29.4994 20.46H24.568C24.2613 17.5269 22.9164 15.1369 20.465 13.3607L23.0173 8.93933Z" stroke="#083F88"/>
<path d="M21.323 7.94009L18.749 12.4213C16.2517 11.4159 13.7824 11.415 11.2801 12.4219L8.71518 7.98243C10.2728 7.06935 12.4225 6.53258 14.6971 6.48934C16.9947 6.44566 19.3676 6.90675 21.323 7.94009Z" stroke="#083F88"/>
<path d="M9.00874 18.6004C11.2969 18.9379 13.5909 19.2536 15.8734 19.628C16.5818 19.7428 16.9648 20.5638 16.7588 21.2803C16.5429 22.0235 15.7265 22.5276 15.0565 22.1702C12.9993 21.072 10.9806 19.8957 8.9531 18.7473L9.00874 18.6004Z" fill="#083F88"/>
<rect x="14.9388" y="0.553589" width="0.150897" height="3.16884" fill="#D9D9D9"/>
</svg>
