<svg width="122" height="111" viewBox="0 0 122 111" fill="none" xmlns="http://www.w3.org/2000/svg">
<path d="M68.7142 44.8699C68.5746 44.7484 68.493 44.6805 68.4156 44.6113C67.5904 43.8589 66.5419 43.412 65.4385 43.3424C64.3324 43.2641 63.3166 43.5728 62.3827 44.1827C62.1763 44.3175 62.0035 44.6107 61.7535 44.547C61.5528 44.4963 61.3916 44.2681 61.2222 44.1081C59.9532 42.9104 58.6859 41.7114 57.4203 40.5109C55.5367 38.7248 53.6539 36.9377 51.772 35.1497C51.6642 35.0472 51.5615 34.9386 51.4496 34.8407C51.2948 34.7052 51.2303 34.5414 51.2284 34.3313C51.226 33.9445 51.1828 33.5591 51.0995 33.1819C50.6317 31.1013 48.6767 29.3356 46.3187 29.3078C44.158 29.2829 41.8882 30.8046 41.3724 33.4582C41.3566 33.5428 41.3461 33.6283 41.3408 33.7142C41.2861 34.4825 41.3778 34.2605 40.7852 34.7783C37.9846 37.2264 35.1815 39.6721 32.3757 42.1154C31.3825 42.9816 30.39 43.8488 29.3983 44.717C29.2864 44.814 29.177 44.9151 29.0617 45.0098C29.0227 45.0463 28.9736 45.0694 28.9211 45.0761C28.8687 45.0827 28.8156 45.0726 28.769 45.047C27.8317 44.5712 26.8364 44.4846 25.8128 44.5861C25.7707 44.5895 25.7283 44.5886 25.6864 44.5835C25.5916 44.5738 25.5284 44.5208 25.5214 44.4251C25.5085 44.2755 25.5012 44.1249 25.5012 43.9746C25.5012 36.3952 25.4998 28.816 25.4971 21.2369C25.4942 18.9052 26.0957 16.7674 27.4126 14.865C29.1356 12.3764 31.4719 10.8637 34.4214 10.3269C35.0905 10.2064 35.7611 10.1892 36.4343 10.1883C39.3406 10.1837 42.2468 10.183 45.1528 10.186C45.9746 10.186 45.8997 10.2506 45.9019 9.42385C45.9019 8.92867 45.8955 8.43318 45.9019 7.93703C45.9622 4.00214 48.7728 0.800308 52.32 0.13124C52.7753 0.044995 53.2374 0.00171698 53.7005 0.00195137C58.4387 0.00195137 63.177 0.00130501 67.9153 1.21236e-05C71.8974 -0.00709874 75.0344 3.11489 75.6109 6.63251C75.6987 7.16776 75.724 7.69914 75.7294 8.2386C75.7348 8.77805 75.7272 9.31524 75.7351 9.8547C75.7386 10.0958 75.8065 10.1647 76.0312 10.1779C76.2208 10.1889 76.4104 10.1847 76.6001 10.1847C80.201 10.1847 83.8023 10.1954 87.4033 10.1802C88.9854 10.1737 90.5004 10.4556 91.9432 11.1237C94.274 12.2039 96.009 13.9231 97.1683 16.2529C97.2157 16.3483 97.2552 16.4477 97.2865 16.5499C97.2953 16.579 97.2659 16.6239 97.2466 16.6572C97.2406 16.6682 97.2074 16.6734 97.1929 16.6666C97.0589 16.6065 96.9252 16.5451 96.7934 16.4798C94.061 15.13 90.9315 16.4549 89.8029 19.1302C89.3194 20.276 89.2259 21.4574 89.5678 22.662C89.6086 22.8065 89.6592 22.9481 89.7053 23.0909C89.7486 23.2247 89.7303 23.343 89.6285 23.4465C89.5267 23.5499 89.4221 23.6614 89.3181 23.7697C87.057 26.0865 84.7957 28.403 82.5344 30.7189C78.3232 35.0303 74.1115 39.3414 69.8991 43.6523C69.5148 44.0421 69.1317 44.4394 68.7142 44.8699Z" fill="white"/>
<path d="M98.9577 25.043V25.6034C98.9577 35.0752 98.9577 44.547 98.9577 54.0187C98.9577 56.3291 98.3762 58.4725 97.0551 60.3742C95.2728 62.94 92.8426 64.4879 89.7628 64.9885C89.1501 65.0882 88.537 65.1078 87.9205 65.1078H59.4087C51.7334 65.1078 44.0582 65.1093 36.383 65.1124C34.6055 65.1146 32.9135 64.7639 31.3466 63.9248C28.1829 62.2306 26.2534 59.6043 25.6024 56.0402C25.5447 55.7233 25.4927 55.4073 25.4974 55.0843C25.4974 54.9855 25.5501 54.9209 25.6474 54.9234C25.9027 54.9305 26.158 54.9501 26.4117 54.9604C28.7445 55.0547 30.9152 53.4354 31.5471 51.1318C31.7915 50.2619 31.8061 49.3427 31.5892 48.4653C31.5683 48.3823 31.5433 48.3003 31.5142 48.2198C31.4363 47.9946 31.4695 47.8264 31.6712 47.6623C32.2166 47.2177 32.7425 46.7492 33.2764 46.2904C36.3502 43.6492 39.4244 41.0082 42.499 38.3675C42.6267 38.2574 42.7623 38.1558 42.8798 38.0618C43.0674 38.0866 43.1599 38.2137 43.272 38.3063C44.978 39.712 47.4499 39.7863 49.2204 38.5724C49.2906 38.5245 49.3637 38.4794 49.4294 38.4257C49.5252 38.3466 49.6209 38.344 49.7125 38.4257C49.8242 38.5248 49.9337 38.6265 50.0425 38.7285C53.3775 41.8475 56.7141 44.965 60.0521 48.0809C60.3192 48.3296 60.4411 48.5847 60.488 48.9524C60.8161 51.5385 62.8891 53.2382 65.1405 53.3878C67.526 53.5464 69.7949 51.9638 70.3827 49.4148C70.3958 49.3738 70.4032 49.3313 70.4048 49.2883C70.3754 48.6992 70.6971 48.3135 71.0918 47.9203C74.1165 44.9081 77.1314 41.8858 80.1364 38.8536C83.3755 35.603 86.6154 32.3536 89.856 29.1051C90.775 28.1831 91.7027 27.2693 92.6094 26.3347C92.8327 26.1047 93.0217 26.0365 93.3242 26.1684C93.9152 26.4258 94.542 26.5249 95.1888 26.5223C96.4047 26.5168 97.4763 26.1182 98.4302 25.3689C98.5731 25.2534 98.6778 25.0751 98.9577 25.043Z" fill="white"/>
<path d="M0.456657 91.8096C0.456657 88.1072 0.456657 84.4048 0.456657 80.7022C0.456657 80.0729 0.385157 80.1424 1.00773 80.1402C1.68869 80.1377 2.36964 80.1377 3.05059 80.1402C3.21975 80.1402 3.25837 80.1798 3.26485 80.3378C3.27033 80.4704 3.26734 80.6035 3.26734 80.7366C3.26734 83.5926 3.26734 86.4483 3.26734 89.3039C3.26734 89.4367 3.26559 89.5696 3.26983 89.7027C3.26983 89.7294 3.28677 89.7692 3.30745 89.7775C3.35727 89.8009 3.39614 89.7775 3.42778 89.7294C3.49205 89.6327 3.56031 89.5387 3.63057 89.4462C4.64627 88.112 5.99879 87.4068 7.66447 87.2884C8.39667 87.2364 9.12462 87.2593 9.83962 87.438C11.1894 87.777 12.2283 88.5551 12.9986 89.7037C13.6114 90.6177 13.9356 91.6374 14.0905 92.7176C14.1707 93.2775 14.1949 93.8408 14.1947 94.4058C14.1928 97.2617 14.1928 100.117 14.1947 102.973C14.1947 103.569 14.2507 103.511 13.669 103.513C12.9884 103.514 12.3077 103.515 11.6261 103.511C11.4268 103.511 11.3959 103.477 11.389 103.283C11.3842 103.151 11.3875 103.018 11.3875 102.885C11.3875 100.295 11.3875 97.7047 11.3875 95.1144C11.3875 94.2994 11.3376 93.4878 11.1114 92.6992C11.0389 92.4442 10.9473 92.1951 10.8374 91.9539C10.4012 91.004 9.67495 90.4031 8.65202 90.1628C7.98761 90.0048 7.29698 89.9918 6.6271 90.1247C5.74842 90.2979 5.03068 90.7545 4.46839 91.4522C3.92554 92.1252 3.60815 92.9031 3.43849 93.7438C3.32044 94.3468 3.26302 94.9601 3.26709 95.5746C3.26709 98.0152 3.26709 100.456 3.26709 102.897C3.26709 103.029 3.27033 103.162 3.2651 103.295C3.25812 103.47 3.22399 103.512 3.06579 103.513C2.26858 103.516 1.47186 103.516 0.675643 103.513C0.503993 103.513 0.46488 103.472 0.458153 103.315C0.452673 103.182 0.456162 103.05 0.456162 102.916C0.456494 99.214 0.456657 95.5118 0.456657 91.8096Z" fill="white"/>
<path d="M51.3487 92.0649L41.256 98.6529C41.0168 98.3931 40.3218 97.2219 40.0268 96.5806L47.6858 91.4615C47.6778 91.3328 47.6175 91.2748 47.5612 91.2142C47.0291 90.6409 46.3863 90.2421 45.6369 90.029C44.5582 89.7237 43.4718 89.7192 42.3983 90.049C40.8646 90.52 39.752 91.5111 39.1347 92.9747C38.4089 94.697 38.4463 96.4512 39.3143 98.1217C40.0791 99.5923 41.2455 100.664 42.8768 101.093C45.0174 101.654 47.403 101.112 48.9556 99.0492C49.4997 98.3263 49.8814 97.5208 50.1549 96.6613C50.2002 96.5196 50.2466 96.3784 50.2939 96.2376C50.2982 96.2251 50.3161 96.2169 50.3275 96.2067C50.4008 96.18 50.4544 96.2271 50.5107 96.258C51.0189 96.5377 51.5271 96.8169 52.0336 97.1C52.275 97.2351 52.273 97.2389 52.1831 97.5325C51.981 98.1989 51.7207 98.8462 51.405 99.4669C51.1582 99.9558 50.8672 100.421 50.5358 100.857C49.5582 102.137 48.3059 103.02 46.752 103.46C45.3276 103.87 43.8273 103.94 42.3706 103.667C40.8611 103.387 39.5594 102.702 38.4324 101.671C37.2014 100.545 36.3267 99.198 35.966 97.5559C35.5028 95.4415 35.671 93.3824 36.7502 91.4794C37.9854 89.3012 39.8419 87.9051 42.3238 87.4415C44.1255 87.1053 45.8913 87.2489 47.5605 88.0859C48.3549 88.4847 49.0503 89.0153 49.6681 89.6502C50.2962 90.2957 50.8196 91.021 51.2742 91.7967C51.3183 91.868 51.3657 91.9363 51.3487 92.0649Z" fill="white"/>
<path d="M75.0527 92.7319C75.0527 94.1928 75.0614 95.6536 75.0497 97.1143C75.0441 98.0125 74.8968 98.9041 74.613 99.7563C73.957 101.721 72.5885 102.937 70.6269 103.523C70.5155 103.556 70.4052 103.596 70.2916 103.615C69.6812 103.72 69.8072 103.747 69.8057 104.266C69.7998 106.308 69.8033 108.35 69.8033 110.392C69.8033 110.524 69.8058 110.657 69.801 110.79C69.7953 110.954 69.7567 110.997 69.596 110.998C69.1314 111.001 68.6665 111 68.2009 110.998C67.8521 110.998 67.5033 110.998 67.1545 110.994C67.0593 110.994 67.0003 110.941 66.9966 110.844C66.9916 110.712 66.9913 110.579 66.9913 110.445C66.9913 108.387 66.9913 106.329 66.9913 104.27C66.9913 104.137 66.9896 104.005 66.9893 103.871C66.9893 103.772 66.934 103.722 66.8436 103.704C66.5676 103.648 66.289 103.604 66.0157 103.536C65.0172 103.291 64.1097 102.869 63.356 102.151C62.5623 101.395 62.0939 100.455 61.8206 99.4096C61.6249 98.6535 61.526 97.8756 61.5262 97.0946C61.5182 94.0731 61.5229 91.0517 61.5229 88.0305C61.5229 87.9807 61.5229 87.9308 61.5229 87.881C61.5307 87.6138 61.5351 87.6041 61.8107 87.6028C62.5747 87.5997 63.3381 87.5997 64.1009 87.6028C64.3075 87.6028 64.3331 87.6312 64.3413 87.8272C64.3466 87.9598 64.3433 88.0926 64.3433 88.226C64.3433 91.0315 64.3433 93.8371 64.3433 96.6427C64.3433 97.2758 64.4034 97.9011 64.5925 98.5098C65.0546 99.9981 66.1827 101.07 68.0576 101.15C68.5736 101.172 69.0845 101.138 69.5858 100.996C70.5143 100.732 71.1954 100.165 71.6513 99.3214C71.9221 98.8196 72.0748 98.2783 72.1588 97.7174C72.2335 97.2242 72.2552 96.7274 72.2547 96.2284C72.2519 93.5556 72.2515 90.8829 72.2534 88.2103C72.2534 88.0774 72.2505 87.9446 72.2549 87.8115C72.2609 87.6387 72.2896 87.6058 72.4562 87.6041C72.8379 87.5998 73.2196 87.6018 73.6022 87.6023C74.0341 87.6023 74.4659 87.6033 74.8977 87.6053C74.9941 87.6053 75.0522 87.6539 75.0554 87.7524C75.0599 87.885 75.0604 88.0178 75.0604 88.1512C75.0604 89.6783 75.0604 91.2055 75.0604 92.7329L75.0527 92.7319Z" fill="white"/>
<path d="M113.13 103.515C111.934 103.515 110.739 103.515 109.545 103.515C109.412 103.515 109.28 103.515 109.146 103.51C109.072 103.507 109.027 103.463 109.013 103.39C109.006 103.358 109.003 103.325 109.003 103.292C109.003 102.611 109 101.93 109.003 101.25C109.003 101.079 109.036 101.052 109.206 101.046C109.339 101.042 109.472 101.045 109.605 101.045C111.796 101.045 113.987 101.045 116.178 101.045C116.41 101.045 116.643 101.038 116.875 101.036C117.334 101.032 117.752 100.892 118.162 100.694C118.507 100.527 118.688 100.251 118.771 99.8951C118.798 99.7651 118.815 99.6332 118.823 99.5006C118.88 98.7822 118.594 98.2391 117.965 97.8914C117.735 97.7638 117.486 97.6656 117.237 97.5768C115.348 96.9034 113.459 96.2329 111.569 95.5654C111.162 95.4213 110.762 95.2616 110.381 95.0589C110.102 94.9121 109.836 94.7406 109.587 94.5465C109.089 94.1554 108.739 93.6584 108.559 93.0534C108.312 92.2388 108.288 91.3728 108.49 90.5457C108.707 89.6422 109.226 88.9635 110.017 88.4864C110.607 88.1305 111.253 87.9273 111.925 87.8005C112.66 87.6656 113.406 87.5998 114.153 87.6038C116.144 87.6038 118.136 87.6038 120.128 87.6038C120.228 87.6038 120.328 87.6061 120.427 87.614C120.502 87.6203 120.542 87.6691 120.549 87.7441C120.551 87.7606 120.555 87.777 120.555 87.794C120.555 88.4919 120.555 89.1892 120.555 89.886C120.555 90.0019 120.505 90.0751 120.379 90.0764C120.246 90.0779 120.114 90.0781 119.981 90.0781C117.972 90.0781 115.964 90.0781 113.955 90.0781C113.524 90.0781 113.091 90.0694 112.67 90.187C112.494 90.2327 112.321 90.2901 112.153 90.359C111.54 90.6235 111.246 91.1068 111.214 91.7623C111.189 92.2825 111.396 92.697 111.805 93.0133C112.084 93.2292 112.406 93.3603 112.736 93.4769C114.048 93.9414 115.359 94.4066 116.67 94.8727C117.326 95.1055 117.984 95.3326 118.637 95.5734C119.245 95.7977 119.829 96.0719 120.362 96.448C120.996 96.8966 121.429 97.4849 121.612 98.2448C121.844 99.206 121.802 100.158 121.456 101.084C121.16 101.882 120.602 102.455 119.852 102.846C119.21 103.181 118.519 103.35 117.809 103.433C117.281 103.494 116.75 103.523 116.219 103.517C115.188 103.508 114.159 103.515 113.13 103.515Z" fill="white"/>
<path d="M78.1329 90.9123V83.4413C78.1329 83.3084 78.1302 83.1756 78.1347 83.0425C78.1404 82.8663 78.1688 82.8311 78.334 82.8306C79.1312 82.8276 79.9278 82.8276 80.7239 82.8306C80.896 82.8306 80.9296 82.867 80.9366 83.0285C80.9416 83.1447 80.9384 83.2611 80.9386 83.3775C80.9386 84.6224 80.9386 85.8675 80.9386 87.1127C80.9386 87.2456 80.9369 87.3784 80.9421 87.5115C80.9458 87.606 80.9989 87.6646 81.0963 87.6683C81.2288 87.6731 81.3616 87.6741 81.4949 87.6741C82.8228 87.6741 84.1506 87.6741 85.4782 87.6741C85.611 87.6741 85.7436 87.6766 85.8769 87.6818C85.9516 87.6848 85.9949 87.7294 86.0059 87.8027C86.0099 87.8358 86.0114 87.8691 86.0106 87.9024C86.0106 88.5664 86.0129 89.2306 86.0106 89.8946C86.0106 90.1015 85.9892 90.1175 85.7807 90.1247C85.6646 90.1289 85.5482 90.1262 85.4319 90.1262H81.4982C81.3656 90.1262 81.2328 90.1262 81.0995 90.1327C81.0039 90.1364 80.9473 90.191 80.9426 90.2872C80.9379 90.3834 80.9396 90.4866 80.9396 90.5863C80.9396 92.9768 80.9396 95.3674 80.9396 97.758C80.9395 98.2728 81.0037 98.7856 81.1307 99.2844C81.1688 99.4288 81.2169 99.5704 81.2747 99.7082C81.4597 100.161 81.7806 100.478 82.2373 100.66C82.6381 100.82 83.0613 100.918 83.4919 100.949C83.9551 100.982 84.4197 100.993 84.8838 101.007C85.116 101.015 85.3484 101.01 85.5814 101.007C86.0453 101.006 86.0121 100.996 86.0119 101.44C86.0119 102.054 86.0139 102.669 86.0099 103.283C86.0099 103.482 85.9785 103.512 85.7755 103.513C84.5644 103.518 83.3522 103.543 82.1504 103.344C81.5099 103.238 80.8878 103.076 80.2993 102.793C79.5973 102.457 79.0903 101.931 78.7547 101.233C78.4946 100.69 78.3454 100.113 78.253 99.5212C78.1686 98.963 78.1282 98.3991 78.1322 97.8345C78.1358 95.527 78.1361 93.2196 78.1329 90.9123Z" fill="white"/>
<path d="M104.412 103.515C103.431 103.513 102.456 103.45 101.493 103.247C100.721 103.085 100.006 102.795 99.3528 102.35C98.5293 101.787 97.7824 101.12 97.1311 100.364C96.3957 99.5143 95.9981 98.5008 95.7883 97.4091C95.647 96.6731 95.6122 95.9273 95.6435 95.1793C95.7063 93.6813 96.1931 92.3221 97.0217 91.0834C97.5897 90.2342 98.3037 89.5181 99.1144 88.8989C99.7572 88.4074 100.495 88.115 101.273 87.9166C101.981 87.7383 102.708 87.6393 103.438 87.6213C104.335 87.5963 105.23 87.6056 106.127 87.6043C106.407 87.6043 106.418 87.6153 106.42 87.8738C106.423 88.5384 106.423 89.2025 106.42 89.866C106.42 90.0345 106.38 90.0734 106.216 90.0751C105.569 90.0821 104.921 90.0729 104.274 90.0903C103.422 90.1135 102.59 90.2673 101.803 90.5993C100.207 91.2723 99.1264 92.4156 98.7141 94.1242C98.4527 95.208 98.4649 96.3002 98.7776 97.3732C99.1321 98.5945 99.8922 99.507 100.986 100.144C101.802 100.619 102.695 100.855 103.628 100.953C104.389 101.032 105.153 101.004 105.916 101.008C106.482 101.011 106.419 100.965 106.421 101.519C106.423 102.1 106.424 102.681 106.421 103.262C106.419 103.484 106.389 103.511 106.157 103.514C105.574 103.517 104.993 103.515 104.412 103.515Z" fill="white"/>
<path d="M55.0543 80.1388H57.3314C57.8354 80.1388 57.8032 80.0995 57.8032 80.6341C57.8032 87.6017 57.8032 94.5691 57.8032 101.537C57.8032 102.052 57.8032 102.566 57.8032 103.079C57.8032 103.179 57.8015 103.279 57.7935 103.377C57.7878 103.452 57.7415 103.495 57.6672 103.505C57.6342 103.51 57.6009 103.513 57.5676 103.514C56.788 103.514 56.0085 103.516 55.229 103.514C55.0269 103.514 54.9926 103.478 54.9843 103.291C54.9786 103.159 54.9821 103.026 54.9821 102.892C54.9821 95.5101 54.9828 88.1278 54.9843 80.7455C54.9846 80.5516 54.936 80.3482 55.0543 80.1388Z" fill="white"/>
<path d="M28.8542 90.2332C29.0619 90.0946 29.1105 89.9286 29.1975 89.7957C29.7456 88.96 30.4369 88.2835 31.34 87.8399C31.9877 87.5221 32.6713 87.3296 33.3926 87.2943C33.8893 87.2693 34.3876 87.2678 34.8851 87.2628C35.0403 87.2614 35.0909 87.3164 35.0914 87.473C35.0939 88.2207 35.0914 88.9685 35.0914 89.7142C35.0914 89.8356 35.0336 89.8987 34.914 89.9004C34.7314 89.9034 34.5488 89.8984 34.3659 89.9034C33.5667 89.9253 32.7792 90.0196 32.0184 90.2828C30.8776 90.6771 30.0485 91.4154 29.537 92.5113C29.2107 93.2107 29.0373 93.952 28.9463 94.712C28.8786 95.2891 28.8463 95.8699 28.8497 96.451C28.8579 98.6589 28.8522 100.867 28.8537 103.075C28.8537 103.539 28.8594 103.516 28.4262 103.515C27.7124 103.515 26.9987 103.517 26.2851 103.513C26.0774 103.513 26.0552 103.486 26.0477 103.285C26.0435 103.169 26.0462 103.053 26.0462 102.936C26.0462 98.0218 26.0466 93.1076 26.0475 88.1936C26.0475 87.5151 25.964 87.6078 26.616 87.6031C27.2301 87.5986 27.8442 87.6031 28.4595 87.6016C28.8773 87.6016 28.8549 87.5864 28.8544 88.0183C28.8537 88.7324 28.8542 89.4463 28.8542 90.2332Z" fill="white"/>
<path d="M18.3954 95.5164C18.3954 93.0608 18.3954 90.6052 18.3954 88.1495C18.3954 87.5284 18.3304 87.6064 18.9627 87.6037C19.6428 87.6007 20.3229 87.6007 21.003 87.6037C21.1729 87.6037 21.2053 87.6401 21.2133 87.8068C21.2185 87.9227 21.2155 88.0389 21.2155 88.1558C21.2155 93.0836 21.2155 98.0116 21.2155 102.94C21.2155 103.056 21.2188 103.172 21.2135 103.289C21.2048 103.477 21.1702 103.513 20.9716 103.513C20.1922 103.515 19.4126 103.515 18.6328 103.513C18.4268 103.513 18.4034 103.483 18.3964 103.281C18.3919 103.149 18.3949 103.016 18.3949 102.883C18.3952 100.428 18.3954 97.9722 18.3954 95.5164Z" fill="white"/>
<path d="M89.5957 95.5356V88.2211C89.5957 88.0885 89.593 87.9557 89.5972 87.8223C89.6029 87.6371 89.6259 87.6055 89.7895 87.605C90.6022 87.602 91.4146 87.605 92.227 87.605C92.3538 87.605 92.4014 87.6753 92.4014 87.7907C92.4014 87.9235 92.4027 88.0561 92.4027 88.1895C92.4027 93.099 92.4027 98.0085 92.4027 102.918C92.4027 103.608 92.4851 103.51 91.7878 103.516C91.1401 103.521 90.4943 103.519 89.8476 103.516C89.6189 103.516 89.6039 103.493 89.5985 103.251C89.5952 103.135 89.5985 103.019 89.5985 102.902L89.5957 95.5356Z" fill="white"/>
<path d="M93.0003 82.9948C93.0631 84.0462 92.1672 85.0674 90.9856 85.0689C89.8082 85.0706 88.9084 84.1773 88.8964 83.0043C88.8867 82.0559 89.6062 80.9679 90.9515 80.9545C92.2968 80.941 93.0658 82.0906 93.0003 82.9948Z" fill="white"/>
<path d="M21.8141 82.9778C21.8225 83.2474 21.7771 83.5159 21.6805 83.7677C21.5839 84.0196 21.4381 84.2496 21.2516 84.4443C21.0651 84.639 20.8416 84.7946 20.5943 84.9019C20.3469 85.0091 20.0807 85.0659 19.8111 85.069C18.6402 85.0822 17.7102 84.1936 17.7042 83.0211C17.6985 81.9299 18.5156 80.9504 19.7929 80.9544C21.0022 80.9578 21.8315 81.9484 21.8141 82.9778Z" fill="white"/>
</svg>
